<svg xmlns="http://www.w3.org/2000/svg" xmlns:xlink="http://www.w3.org/1999/xlink" width="1500" zoomAndPan="magnify" viewBox="0 0 1125 374.999991" height="500" preserveAspectRatio="xMidYMid meet" version="1.0"><defs><g/><clipPath id="632feb504f"><rect x="0" width="739" y="0" height="116"/></clipPath><clipPath id="8a1f595727"><path d="M 146 231.398438 L 570 231.398438 L 570 235.148438 L 146 235.148438 Z M 146 231.398438 " clip-rule="nonzero"/></clipPath><clipPath id="38f14d72df"><path d="M 470 231.398438 L 894 231.398438 L 894 235.148438 L 470 235.148438 Z M 470 231.398438 " clip-rule="nonzero"/></clipPath><clipPath id="bda4b00670"><path d="M 546 231.398438 L 970 231.398438 L 970 235.148438 L 546 235.148438 Z M 546 231.398438 " clip-rule="nonzero"/></clipPath></defs><rect x="-112.5" width="1350" fill="#ffffff" y="-37.499999" height="449.999989" fill-opacity="1"/><rect x="-112.5" width="1350" fill="#fff6ea" y="-37.499999" height="449.999989" fill-opacity="1"/><g transform="matrix(1, 0, 0, 1, 194, 110)"><g clip-path="url(#632feb504f)"><g fill="#34252f" fill-opacity="1"><g transform="translate(8.608026, 87.800613)"><g><path d="M 22.203125 -61.3125 C 22.203125 -58.820312 21.4375 -56.835938 19.90625 -55.359375 C 18.375 -53.890625 16.332031 -53.15625 13.78125 -53.15625 C 11.300781 -53.15625 9.320312 -53.890625 7.84375 -55.359375 C 6.375 -56.835938 5.640625 -58.820312 5.640625 -61.3125 C 5.640625 -63.738281 6.40625 -65.703125 7.9375 -67.203125 C 9.46875 -68.710938 11.476562 -69.46875 13.96875 -69.46875 C 16.445312 -69.46875 18.4375 -68.710938 19.9375 -67.203125 C 21.445312 -65.703125 22.203125 -63.738281 22.203125 -61.3125 Z M 7.28125 16.90625 C 4.800781 16.90625 2.894531 16.425781 1.5625 15.46875 C 0.226562 14.519531 -0.4375 13.441406 -0.4375 12.234375 C -0.4375 11.878906 -0.347656 11.441406 -0.171875 10.921875 C 0.00390625 10.398438 0.175781 10 0.34375 9.71875 C 2.71875 9.71875 4.507812 9.007812 5.71875 7.59375 C 6.9375 6.175781 7.546875 3.734375 7.546875 0.265625 L 7.546875 -34.859375 C 7.546875 -36.304688 7.140625 -37.375 6.328125 -38.0625 C 5.515625 -38.757812 4.015625 -39.109375 1.828125 -39.109375 L 1.828125 -43.015625 C 3.898438 -44.054688 6.554688 -44.992188 9.796875 -45.828125 C 13.035156 -46.671875 15.582031 -47.09375 17.4375 -47.09375 C 18.820312 -47.09375 19.785156 -46.800781 20.328125 -46.21875 C 20.878906 -45.644531 21.15625 -44.632812 21.15625 -43.1875 L 21.15625 0.875 C 21.15625 6.070312 19.835938 10.039062 17.203125 12.78125 C 14.578125 15.53125 11.269531 16.90625 7.28125 16.90625 Z M 7.28125 16.90625 "/></g></g></g><g fill="#34252f" fill-opacity="1"><g transform="translate(34.622871, 87.800613)"><g><path d="M 23.234375 1.125 C 16.878906 1.125 11.789062 -0.878906 7.96875 -4.890625 C 4.15625 -8.910156 2.25 -14.648438 2.25 -22.109375 C 2.25 -27.429688 3.160156 -31.96875 4.984375 -35.71875 C 6.804688 -39.476562 9.363281 -42.3125 12.65625 -44.21875 C 15.957031 -46.132812 19.773438 -47.09375 24.109375 -47.09375 C 28.273438 -47.09375 31.929688 -46.179688 35.078125 -44.359375 C 38.222656 -42.535156 40.675781 -39.859375 42.4375 -36.328125 C 44.207031 -32.804688 45.09375 -28.53125 45.09375 -23.5 C 45.09375 -18.238281 44.179688 -13.757812 42.359375 -10.0625 C 40.535156 -6.363281 37.976562 -3.570312 34.6875 -1.6875 C 31.394531 0.1875 27.578125 1.125 23.234375 1.125 Z M 23.9375 -5.109375 C 25.957031 -5.109375 27.457031 -6.265625 28.4375 -8.578125 C 29.425781 -10.890625 29.921875 -15.171875 29.921875 -21.421875 C 29.921875 -26.679688 29.660156 -30.726562 29.140625 -33.5625 C 28.617188 -36.394531 27.894531 -38.332031 26.96875 -39.375 C 26.039062 -40.414062 24.859375 -40.9375 23.421875 -40.9375 C 21.390625 -40.9375 19.867188 -39.78125 18.859375 -37.46875 C 17.847656 -35.15625 17.34375 -30.816406 17.34375 -24.453125 C 17.34375 -19.253906 17.601562 -15.25 18.125 -12.4375 C 18.644531 -9.632812 19.378906 -7.710938 20.328125 -6.671875 C 21.285156 -5.628906 22.488281 -5.109375 23.9375 -5.109375 Z M 23.9375 -5.109375 "/></g></g></g><g fill="#34252f" fill-opacity="1"><g transform="translate(81.969981, 87.800613)"><g><path d="M 20.03125 0.875 C 17.195312 0.875 14.378906 0.457031 11.578125 -0.375 C 8.773438 -1.21875 6.476562 -2.421875 4.6875 -3.984375 C 2.894531 -5.546875 2 -7.398438 2 -9.546875 C 2 -11.566406 2.578125 -13.195312 3.734375 -14.4375 C 4.890625 -15.675781 6.363281 -16.296875 8.15625 -16.296875 C 9.769531 -16.296875 11.140625 -15.773438 12.265625 -14.734375 C 13.398438 -13.703125 13.96875 -12.347656 13.96875 -10.671875 C 13.96875 -9.921875 13.863281 -9.269531 13.65625 -8.71875 C 13.457031 -8.164062 13.097656 -7.570312 12.578125 -6.9375 C 13.035156 -6.476562 13.898438 -6.117188 15.171875 -5.859375 C 16.441406 -5.597656 17.800781 -5.46875 19.25 -5.46875 C 21.21875 -5.46875 22.765625 -5.828125 23.890625 -6.546875 C 25.015625 -7.265625 25.578125 -8.203125 25.578125 -9.359375 C 25.578125 -10.921875 24.851562 -12.265625 23.40625 -13.390625 C 21.96875 -14.523438 19.660156 -15.929688 16.484375 -17.609375 C 13.242188 -19.335938 10.785156 -20.765625 9.109375 -21.890625 C 7.429688 -23.023438 5.941406 -24.554688 4.640625 -26.484375 C 3.335938 -28.421875 2.6875 -30.804688 2.6875 -33.640625 C 2.6875 -37.578125 4.304688 -40.757812 7.546875 -43.1875 C 10.785156 -45.613281 15.265625 -46.828125 20.984375 -46.828125 C 26.585938 -46.828125 30.765625 -45.828125 33.515625 -43.828125 C 36.265625 -41.835938 37.640625 -39.457031 37.640625 -36.6875 C 37.640625 -34.945312 37.070312 -33.523438 35.9375 -32.421875 C 34.8125 -31.328125 33.441406 -30.78125 31.828125 -30.78125 C 30.328125 -30.78125 29.039062 -31.226562 27.96875 -32.125 C 26.894531 -33.019531 26.359375 -34.191406 26.359375 -35.640625 C 26.359375 -36.390625 26.472656 -37.15625 26.703125 -37.9375 C 26.941406 -38.71875 27.257812 -39.367188 27.65625 -39.890625 C 26.5 -40.816406 24.765625 -41.28125 22.453125 -41.28125 C 20.609375 -41.28125 19.164062 -40.84375 18.125 -39.96875 C 17.082031 -39.101562 16.5625 -38.007812 16.5625 -36.6875 C 16.5625 -34.894531 17.285156 -33.421875 18.734375 -32.265625 C 20.179688 -31.109375 22.492188 -29.71875 25.671875 -28.09375 C 28.671875 -26.53125 31.035156 -25.171875 32.765625 -24.015625 C 34.503906 -22.859375 36.007812 -21.328125 37.28125 -19.421875 C 38.5625 -17.515625 39.203125 -15.175781 39.203125 -12.40625 C 39.203125 -7.894531 37.363281 -4.550781 33.6875 -2.375 C 30.019531 -0.207031 25.46875 0.875 20.03125 0.875 Z M 20.03125 0.875 "/></g></g></g><g fill="#34252f" fill-opacity="1"><g transform="translate(123.16024, 87.800613)"><g><path d="M 27.75 -8.84375 C 31.394531 -8.84375 34.773438 -10 37.890625 -12.3125 C 38.359375 -11.851562 38.765625 -11.160156 39.109375 -10.234375 C 39.453125 -9.304688 39.625 -8.5 39.625 -7.8125 C 39.625 -6.769531 38.929688 -5.566406 37.546875 -4.203125 C 36.160156 -2.847656 34.238281 -1.675781 31.78125 -0.6875 C 29.320312 0.289062 26.5625 0.78125 23.5 0.78125 C 19.21875 0.78125 15.472656 -0.140625 12.265625 -1.984375 C 9.054688 -3.835938 6.582031 -6.523438 4.84375 -10.046875 C 3.113281 -13.578125 2.25 -17.742188 2.25 -22.546875 C 2.25 -27.460938 3.1875 -31.769531 5.0625 -35.46875 C 6.945312 -39.164062 9.535156 -42.007812 12.828125 -44 C 16.128906 -46 19.859375 -47 24.015625 -47 C 29.273438 -47 33.46875 -45.46875 36.59375 -42.40625 C 39.71875 -39.34375 41.28125 -35.09375 41.28125 -29.65625 C 41.28125 -27.113281 40.875 -25.101562 40.0625 -23.625 C 39.25 -22.15625 37.804688 -21.421875 35.734375 -21.421875 L 17 -21.421875 C 17.34375 -13.035156 20.925781 -8.84375 27.75 -8.84375 Z M 23.5 -41.015625 C 21.707031 -41.015625 20.203125 -40.015625 18.984375 -38.015625 C 17.773438 -36.023438 17.113281 -32.691406 17 -28.015625 L 25.75 -28.015625 C 26.675781 -28.015625 27.285156 -28.332031 27.578125 -28.96875 C 27.867188 -29.601562 28.015625 -30.582031 28.015625 -31.90625 C 28.015625 -35.320312 27.609375 -37.691406 26.796875 -39.015625 C 25.984375 -40.347656 24.882812 -41.015625 23.5 -41.015625 Z M 23.5 -41.015625 "/></g></g></g><g fill="#34252f" fill-opacity="1"><g transform="translate(166.691788, 87.800613)"><g><path d="M 23.328125 0.953125 C 22.804688 0.953125 21.679688 0.894531 19.953125 0.78125 L 19.953125 7.109375 C 19.953125 8.671875 20.515625 9.851562 21.640625 10.65625 C 22.765625 11.46875 24.050781 11.875 25.5 11.875 C 25.5 13.613281 24.832031 15.148438 23.5 16.484375 L 4.34375 16.484375 C 2.945312 15.085938 2.25 13.550781 2.25 11.875 C 3.925781 11.875 5.023438 11.523438 5.546875 10.828125 C 6.066406 10.140625 6.328125 8.898438 6.328125 7.109375 L 6.328125 -34.421875 C 6.328125 -35.984375 5.894531 -37.097656 5.03125 -37.765625 C 4.164062 -38.429688 2.660156 -38.765625 0.515625 -38.765625 L 0.515625 -42.671875 C 2.367188 -43.765625 4.722656 -44.726562 7.578125 -45.5625 C 10.441406 -46.40625 12.65625 -46.828125 14.21875 -46.828125 C 15.4375 -46.828125 16.421875 -46.582031 17.171875 -46.09375 C 17.921875 -45.601562 18.46875 -44.691406 18.8125 -43.359375 C 21.1875 -45.671875 24.6875 -46.828125 29.3125 -46.828125 C 32.488281 -46.828125 35.40625 -46.015625 38.0625 -44.390625 C 40.726562 -42.773438 42.851562 -40.332031 44.4375 -37.0625 C 46.03125 -33.800781 46.828125 -29.832031 46.828125 -25.15625 C 46.828125 -19.769531 45.785156 -15.113281 43.703125 -11.1875 C 41.617188 -7.257812 38.785156 -4.253906 35.203125 -2.171875 C 31.617188 -0.0859375 27.660156 0.953125 23.328125 0.953125 Z M 31.828125 -23.0625 C 31.828125 -28.675781 30.957031 -32.753906 29.21875 -35.296875 C 27.488281 -37.835938 25.207031 -39.109375 22.375 -39.109375 C 21.445312 -39.109375 20.640625 -38.9375 19.953125 -38.59375 L 19.953125 -6.25 C 20.929688 -5.664062 22.023438 -5.375 23.234375 -5.375 C 25.785156 -5.375 27.851562 -6.847656 29.4375 -9.796875 C 31.03125 -12.742188 31.828125 -17.164062 31.828125 -23.0625 Z M 31.828125 -23.0625 "/></g></g></g><g fill="#34252f" fill-opacity="1"><g transform="translate(215.946597, 87.800613)"><g><path d="M 50.5625 -2.34375 C 48.476562 -0.4375 45.296875 0.515625 41.015625 0.515625 C 35.179688 0.515625 32.265625 -1.300781 32.265625 -4.9375 L 32.265625 -32.859375 C 32.265625 -34.710938 31.753906 -36.144531 30.734375 -37.15625 C 29.722656 -38.164062 28.351562 -38.671875 26.625 -38.671875 C 25.46875 -38.671875 24.265625 -38.296875 23.015625 -37.546875 C 21.773438 -36.796875 20.867188 -35.84375 20.296875 -34.6875 L 20.296875 -9.359375 C 20.296875 -7.679688 20.65625 -6.484375 21.375 -5.765625 C 22.09375 -5.046875 23.320312 -4.6875 25.0625 -4.6875 C 25.0625 -2.894531 24.394531 -1.332031 23.0625 0 L 3.90625 0 C 2.570312 -1.332031 1.90625 -2.894531 1.90625 -4.6875 C 3.644531 -4.6875 4.875 -5.046875 5.59375 -5.765625 C 6.3125 -6.484375 6.671875 -7.679688 6.671875 -9.359375 L 6.671875 -56.375 C 6.671875 -57.8125 6.265625 -58.875 5.453125 -59.5625 C 4.648438 -60.257812 3.125 -60.609375 0.875 -60.609375 L 0.875 -64.171875 C 2.945312 -65.265625 5.585938 -66.226562 8.796875 -67.0625 C 12.003906 -67.90625 14.59375 -68.328125 16.5625 -68.328125 C 17.894531 -68.328125 18.847656 -68.023438 19.421875 -67.421875 C 20.003906 -66.816406 20.296875 -65.789062 20.296875 -64.34375 L 20.296875 -47.265625 L 20.125 -40.328125 C 21.675781 -42.347656 23.648438 -43.992188 26.046875 -45.265625 C 28.453125 -46.535156 31.101562 -47.171875 34 -47.171875 C 38.039062 -47.171875 41.101562 -46.085938 43.1875 -43.921875 C 45.269531 -41.753906 46.3125 -38.5625 46.3125 -34.34375 L 46.3125 -10.0625 C 46.3125 -8.613281 46.671875 -7.457031 47.390625 -6.59375 C 48.109375 -5.726562 49.132812 -5.148438 50.46875 -4.859375 Z M 50.5625 -2.34375 "/></g></g></g><g fill="#34252f" fill-opacity="1"><g transform="translate(268.149787, 87.800613)"><g><path d="M 22.203125 -61.3125 C 22.203125 -58.820312 21.4375 -56.835938 19.90625 -55.359375 C 18.375 -53.890625 16.332031 -53.15625 13.78125 -53.15625 C 11.300781 -53.15625 9.320312 -53.890625 7.84375 -55.359375 C 6.375 -56.835938 5.640625 -58.820312 5.640625 -61.3125 C 5.640625 -63.738281 6.40625 -65.703125 7.9375 -67.203125 C 9.46875 -68.710938 11.476562 -69.46875 13.96875 -69.46875 C 16.445312 -69.46875 18.4375 -68.710938 19.9375 -67.203125 C 21.445312 -65.703125 22.203125 -63.738281 22.203125 -61.3125 Z M 20.546875 -9.359375 C 20.546875 -7.679688 20.960938 -6.484375 21.796875 -5.765625 C 22.640625 -5.046875 23.929688 -4.6875 25.671875 -4.6875 C 25.671875 -2.894531 25.003906 -1.332031 23.671875 0 L 4.078125 0 C 2.742188 -1.332031 2.078125 -2.894531 2.078125 -4.6875 C 3.816406 -4.6875 5.078125 -5.046875 5.859375 -5.765625 C 6.640625 -6.484375 7.03125 -7.710938 7.03125 -9.453125 L 7.03125 -34.59375 C 7.03125 -36.21875 6.640625 -37.375 5.859375 -38.0625 C 5.078125 -38.757812 3.554688 -39.109375 1.296875 -39.109375 L 1.296875 -42.921875 C 2.679688 -43.796875 5.035156 -44.707031 8.359375 -45.65625 C 11.691406 -46.613281 14.515625 -47.09375 16.828125 -47.09375 C 18.148438 -47.09375 19.097656 -46.785156 19.671875 -46.171875 C 20.253906 -45.566406 20.546875 -44.539062 20.546875 -43.09375 Z M 20.546875 -9.359375 "/></g></g></g><g fill="#34252f" fill-opacity="1"><g transform="translate(295.205232, 87.800613)"><g><path d="M 51.34375 -2.34375 C 50.46875 -1.476562 48.914062 -0.785156 46.6875 -0.265625 C 44.46875 0.253906 42.347656 0.515625 40.328125 0.515625 C 37.835938 0.515625 36 0.0546875 34.8125 -0.859375 C 33.632812 -1.785156 33.046875 -3.265625 33.046875 -5.296875 L 33.046875 -32.34375 C 33.046875 -34.601562 32.550781 -36.222656 31.5625 -37.203125 C 30.582031 -38.179688 29.28125 -38.671875 27.65625 -38.671875 C 25.289062 -38.671875 23.300781 -37.71875 21.6875 -35.8125 L 21.6875 -9.359375 C 21.6875 -7.679688 22.046875 -6.46875 22.765625 -5.71875 C 23.484375 -4.96875 24.710938 -4.59375 26.453125 -4.59375 C 26.453125 -2.863281 25.785156 -1.332031 24.453125 0 L 4.765625 0 C 3.378906 -1.382812 2.6875 -2.914062 2.6875 -4.59375 C 4.425781 -4.59375 5.671875 -4.96875 6.421875 -5.71875 C 7.171875 -6.46875 7.546875 -7.679688 7.546875 -9.359375 L 7.546875 -34.6875 C 7.546875 -36.25 7.109375 -37.363281 6.234375 -38.03125 C 5.367188 -38.695312 3.867188 -39.03125 1.734375 -39.03125 L 1.734375 -42.921875 C 3.585938 -43.960938 6.203125 -44.914062 9.578125 -45.78125 C 12.960938 -46.65625 15.519531 -47.09375 17.25 -47.09375 C 18.582031 -47.09375 19.609375 -46.671875 20.328125 -45.828125 C 21.054688 -44.992188 21.476562 -43.421875 21.59375 -41.109375 C 23.09375 -42.953125 24.96875 -44.410156 27.21875 -45.484375 C 29.476562 -46.554688 32.023438 -47.09375 34.859375 -47.09375 C 39.023438 -47.09375 42.101562 -46.035156 44.09375 -43.921875 C 46.09375 -41.816406 47.09375 -38.363281 47.09375 -33.5625 L 47.09375 -9.890625 C 47.09375 -7.054688 48.476562 -5.378906 51.25 -4.859375 Z M 51.34375 -2.34375 "/></g></g></g><g fill="#34252f" fill-opacity="1"><g transform="translate(348.188851, 87.800613)"><g><path d="M 27.75 -8.84375 C 31.394531 -8.84375 34.773438 -10 37.890625 -12.3125 C 38.359375 -11.851562 38.765625 -11.160156 39.109375 -10.234375 C 39.453125 -9.304688 39.625 -8.5 39.625 -7.8125 C 39.625 -6.769531 38.929688 -5.566406 37.546875 -4.203125 C 36.160156 -2.847656 34.238281 -1.675781 31.78125 -0.6875 C 29.320312 0.289062 26.5625 0.78125 23.5 0.78125 C 19.21875 0.78125 15.472656 -0.140625 12.265625 -1.984375 C 9.054688 -3.835938 6.582031 -6.523438 4.84375 -10.046875 C 3.113281 -13.578125 2.25 -17.742188 2.25 -22.546875 C 2.25 -27.460938 3.1875 -31.769531 5.0625 -35.46875 C 6.945312 -39.164062 9.535156 -42.007812 12.828125 -44 C 16.128906 -46 19.859375 -47 24.015625 -47 C 29.273438 -47 33.46875 -45.46875 36.59375 -42.40625 C 39.71875 -39.34375 41.28125 -35.09375 41.28125 -29.65625 C 41.28125 -27.113281 40.875 -25.101562 40.0625 -23.625 C 39.25 -22.15625 37.804688 -21.421875 35.734375 -21.421875 L 17 -21.421875 C 17.34375 -13.035156 20.925781 -8.84375 27.75 -8.84375 Z M 23.5 -41.015625 C 21.707031 -41.015625 20.203125 -40.015625 18.984375 -38.015625 C 17.773438 -36.023438 17.113281 -32.691406 17 -28.015625 L 25.75 -28.015625 C 26.675781 -28.015625 27.285156 -28.332031 27.578125 -28.96875 C 27.867188 -29.601562 28.015625 -30.582031 28.015625 -31.90625 C 28.015625 -35.320312 27.609375 -37.691406 26.796875 -39.015625 C 25.984375 -40.347656 24.882812 -41.015625 23.5 -41.015625 Z M 23.5 -41.015625 "/></g></g></g><g fill="#34252f" fill-opacity="1"><g transform="translate(391.720399, 87.800613)"><g/></g></g><g fill="#34252f" fill-opacity="1"><g transform="translate(408.196503, 87.800613)"><g><path d="M 22.203125 -61.3125 C 22.203125 -58.820312 21.4375 -56.835938 19.90625 -55.359375 C 18.375 -53.890625 16.332031 -53.15625 13.78125 -53.15625 C 11.300781 -53.15625 9.320312 -53.890625 7.84375 -55.359375 C 6.375 -56.835938 5.640625 -58.820312 5.640625 -61.3125 C 5.640625 -63.738281 6.40625 -65.703125 7.9375 -67.203125 C 9.46875 -68.710938 11.476562 -69.46875 13.96875 -69.46875 C 16.445312 -69.46875 18.4375 -68.710938 19.9375 -67.203125 C 21.445312 -65.703125 22.203125 -63.738281 22.203125 -61.3125 Z M 7.28125 16.90625 C 4.800781 16.90625 2.894531 16.425781 1.5625 15.46875 C 0.226562 14.519531 -0.4375 13.441406 -0.4375 12.234375 C -0.4375 11.878906 -0.347656 11.441406 -0.171875 10.921875 C 0.00390625 10.398438 0.175781 10 0.34375 9.71875 C 2.71875 9.71875 4.507812 9.007812 5.71875 7.59375 C 6.9375 6.175781 7.546875 3.734375 7.546875 0.265625 L 7.546875 -34.859375 C 7.546875 -36.304688 7.140625 -37.375 6.328125 -38.0625 C 5.515625 -38.757812 4.015625 -39.109375 1.828125 -39.109375 L 1.828125 -43.015625 C 3.898438 -44.054688 6.554688 -44.992188 9.796875 -45.828125 C 13.035156 -46.671875 15.582031 -47.09375 17.4375 -47.09375 C 18.820312 -47.09375 19.785156 -46.800781 20.328125 -46.21875 C 20.878906 -45.644531 21.15625 -44.632812 21.15625 -43.1875 L 21.15625 0.875 C 21.15625 6.070312 19.835938 10.039062 17.203125 12.78125 C 14.578125 15.53125 11.269531 16.90625 7.28125 16.90625 Z M 7.28125 16.90625 "/></g></g></g><g fill="#34252f" fill-opacity="1"><g transform="translate(434.211347, 87.800613)"><g><path d="M 23.234375 1.125 C 16.878906 1.125 11.789062 -0.878906 7.96875 -4.890625 C 4.15625 -8.910156 2.25 -14.648438 2.25 -22.109375 C 2.25 -27.429688 3.160156 -31.96875 4.984375 -35.71875 C 6.804688 -39.476562 9.363281 -42.3125 12.65625 -44.21875 C 15.957031 -46.132812 19.773438 -47.09375 24.109375 -47.09375 C 28.273438 -47.09375 31.929688 -46.179688 35.078125 -44.359375 C 38.222656 -42.535156 40.675781 -39.859375 42.4375 -36.328125 C 44.207031 -32.804688 45.09375 -28.53125 45.09375 -23.5 C 45.09375 -18.238281 44.179688 -13.757812 42.359375 -10.0625 C 40.535156 -6.363281 37.976562 -3.570312 34.6875 -1.6875 C 31.394531 0.1875 27.578125 1.125 23.234375 1.125 Z M 23.9375 -5.109375 C 25.957031 -5.109375 27.457031 -6.265625 28.4375 -8.578125 C 29.425781 -10.890625 29.921875 -15.171875 29.921875 -21.421875 C 29.921875 -26.679688 29.660156 -30.726562 29.140625 -33.5625 C 28.617188 -36.394531 27.894531 -38.332031 26.96875 -39.375 C 26.039062 -40.414062 24.859375 -40.9375 23.421875 -40.9375 C 21.390625 -40.9375 19.867188 -39.78125 18.859375 -37.46875 C 17.847656 -35.15625 17.34375 -30.816406 17.34375 -24.453125 C 17.34375 -19.253906 17.601562 -15.25 18.125 -12.4375 C 18.644531 -9.632812 19.378906 -7.710938 20.328125 -6.671875 C 21.285156 -5.628906 22.488281 -5.109375 23.9375 -5.109375 Z M 23.9375 -5.109375 "/></g></g></g><g fill="#34252f" fill-opacity="1"><g transform="translate(481.558457, 87.800613)"><g><path d="M 50.5625 -2.34375 C 48.476562 -0.4375 45.296875 0.515625 41.015625 0.515625 C 35.179688 0.515625 32.265625 -1.300781 32.265625 -4.9375 L 32.265625 -32.859375 C 32.265625 -34.710938 31.753906 -36.144531 30.734375 -37.15625 C 29.722656 -38.164062 28.351562 -38.671875 26.625 -38.671875 C 25.46875 -38.671875 24.265625 -38.296875 23.015625 -37.546875 C 21.773438 -36.796875 20.867188 -35.84375 20.296875 -34.6875 L 20.296875 -9.359375 C 20.296875 -7.679688 20.65625 -6.484375 21.375 -5.765625 C 22.09375 -5.046875 23.320312 -4.6875 25.0625 -4.6875 C 25.0625 -2.894531 24.394531 -1.332031 23.0625 0 L 3.90625 0 C 2.570312 -1.332031 1.90625 -2.894531 1.90625 -4.6875 C 3.644531 -4.6875 4.875 -5.046875 5.59375 -5.765625 C 6.3125 -6.484375 6.671875 -7.679688 6.671875 -9.359375 L 6.671875 -56.375 C 6.671875 -57.8125 6.265625 -58.875 5.453125 -59.5625 C 4.648438 -60.257812 3.125 -60.609375 0.875 -60.609375 L 0.875 -64.171875 C 2.945312 -65.265625 5.585938 -66.226562 8.796875 -67.0625 C 12.003906 -67.90625 14.59375 -68.328125 16.5625 -68.328125 C 17.894531 -68.328125 18.847656 -68.023438 19.421875 -67.421875 C 20.003906 -66.816406 20.296875 -65.789062 20.296875 -64.34375 L 20.296875 -47.265625 L 20.125 -40.328125 C 21.675781 -42.347656 23.648438 -43.992188 26.046875 -45.265625 C 28.453125 -46.535156 31.101562 -47.171875 34 -47.171875 C 38.039062 -47.171875 41.101562 -46.085938 43.1875 -43.921875 C 45.269531 -41.753906 46.3125 -38.5625 46.3125 -34.34375 L 46.3125 -10.0625 C 46.3125 -8.613281 46.671875 -7.457031 47.390625 -6.59375 C 48.109375 -5.726562 49.132812 -5.148438 50.46875 -4.859375 Z M 50.5625 -2.34375 "/></g></g></g><g fill="#34252f" fill-opacity="1"><g transform="translate(533.761647, 87.800613)"><g><path d="M 51.34375 -2.34375 C 50.46875 -1.476562 48.914062 -0.785156 46.6875 -0.265625 C 44.46875 0.253906 42.347656 0.515625 40.328125 0.515625 C 37.835938 0.515625 36 0.0546875 34.8125 -0.859375 C 33.632812 -1.785156 33.046875 -3.265625 33.046875 -5.296875 L 33.046875 -32.34375 C 33.046875 -34.601562 32.550781 -36.222656 31.5625 -37.203125 C 30.582031 -38.179688 29.28125 -38.671875 27.65625 -38.671875 C 25.289062 -38.671875 23.300781 -37.71875 21.6875 -35.8125 L 21.6875 -9.359375 C 21.6875 -7.679688 22.046875 -6.46875 22.765625 -5.71875 C 23.484375 -4.96875 24.710938 -4.59375 26.453125 -4.59375 C 26.453125 -2.863281 25.785156 -1.332031 24.453125 0 L 4.765625 0 C 3.378906 -1.382812 2.6875 -2.914062 2.6875 -4.59375 C 4.425781 -4.59375 5.671875 -4.96875 6.421875 -5.71875 C 7.171875 -6.46875 7.546875 -7.679688 7.546875 -9.359375 L 7.546875 -34.6875 C 7.546875 -36.25 7.109375 -37.363281 6.234375 -38.03125 C 5.367188 -38.695312 3.867188 -39.03125 1.734375 -39.03125 L 1.734375 -42.921875 C 3.585938 -43.960938 6.203125 -44.914062 9.578125 -45.78125 C 12.960938 -46.65625 15.519531 -47.09375 17.25 -47.09375 C 18.582031 -47.09375 19.609375 -46.671875 20.328125 -45.828125 C 21.054688 -44.992188 21.476562 -43.421875 21.59375 -41.109375 C 23.09375 -42.953125 24.96875 -44.410156 27.21875 -45.484375 C 29.476562 -46.554688 32.023438 -47.09375 34.859375 -47.09375 C 39.023438 -47.09375 42.101562 -46.035156 44.09375 -43.921875 C 46.09375 -41.816406 47.09375 -38.363281 47.09375 -33.5625 L 47.09375 -9.890625 C 47.09375 -7.054688 48.476562 -5.378906 51.25 -4.859375 Z M 51.34375 -2.34375 "/></g></g></g><g fill="#34252f" fill-opacity="1"><g transform="translate(586.745267, 87.800613)"><g><path d="M 20.03125 0.875 C 17.195312 0.875 14.378906 0.457031 11.578125 -0.375 C 8.773438 -1.21875 6.476562 -2.421875 4.6875 -3.984375 C 2.894531 -5.546875 2 -7.398438 2 -9.546875 C 2 -11.566406 2.578125 -13.195312 3.734375 -14.4375 C 4.890625 -15.675781 6.363281 -16.296875 8.15625 -16.296875 C 9.769531 -16.296875 11.140625 -15.773438 12.265625 -14.734375 C 13.398438 -13.703125 13.96875 -12.347656 13.96875 -10.671875 C 13.96875 -9.921875 13.863281 -9.269531 13.65625 -8.71875 C 13.457031 -8.164062 13.097656 -7.570312 12.578125 -6.9375 C 13.035156 -6.476562 13.898438 -6.117188 15.171875 -5.859375 C 16.441406 -5.597656 17.800781 -5.46875 19.25 -5.46875 C 21.21875 -5.46875 22.765625 -5.828125 23.890625 -6.546875 C 25.015625 -7.265625 25.578125 -8.203125 25.578125 -9.359375 C 25.578125 -10.921875 24.851562 -12.265625 23.40625 -13.390625 C 21.96875 -14.523438 19.660156 -15.929688 16.484375 -17.609375 C 13.242188 -19.335938 10.785156 -20.765625 9.109375 -21.890625 C 7.429688 -23.023438 5.941406 -24.554688 4.640625 -26.484375 C 3.335938 -28.421875 2.6875 -30.804688 2.6875 -33.640625 C 2.6875 -37.578125 4.304688 -40.757812 7.546875 -43.1875 C 10.785156 -45.613281 15.265625 -46.828125 20.984375 -46.828125 C 26.585938 -46.828125 30.765625 -45.828125 33.515625 -43.828125 C 36.265625 -41.835938 37.640625 -39.457031 37.640625 -36.6875 C 37.640625 -34.945312 37.070312 -33.523438 35.9375 -32.421875 C 34.8125 -31.328125 33.441406 -30.78125 31.828125 -30.78125 C 30.328125 -30.78125 29.039062 -31.226562 27.96875 -32.125 C 26.894531 -33.019531 26.359375 -34.191406 26.359375 -35.640625 C 26.359375 -36.390625 26.472656 -37.15625 26.703125 -37.9375 C 26.941406 -38.71875 27.257812 -39.367188 27.65625 -39.890625 C 26.5 -40.816406 24.765625 -41.28125 22.453125 -41.28125 C 20.609375 -41.28125 19.164062 -40.84375 18.125 -39.96875 C 17.082031 -39.101562 16.5625 -38.007812 16.5625 -36.6875 C 16.5625 -34.894531 17.285156 -33.421875 18.734375 -32.265625 C 20.179688 -31.109375 22.492188 -29.71875 25.671875 -28.09375 C 28.671875 -26.53125 31.035156 -25.171875 32.765625 -24.015625 C 34.503906 -22.859375 36.007812 -21.328125 37.28125 -19.421875 C 38.5625 -17.515625 39.203125 -15.175781 39.203125 -12.40625 C 39.203125 -7.894531 37.363281 -4.550781 33.6875 -2.375 C 30.019531 -0.207031 25.46875 0.875 20.03125 0.875 Z M 20.03125 0.875 "/></g></g></g><g fill="#34252f" fill-opacity="1"><g transform="translate(627.935527, 87.800613)"><g><path d="M 23.234375 1.125 C 16.878906 1.125 11.789062 -0.878906 7.96875 -4.890625 C 4.15625 -8.910156 2.25 -14.648438 2.25 -22.109375 C 2.25 -27.429688 3.160156 -31.96875 4.984375 -35.71875 C 6.804688 -39.476562 9.363281 -42.3125 12.65625 -44.21875 C 15.957031 -46.132812 19.773438 -47.09375 24.109375 -47.09375 C 28.273438 -47.09375 31.929688 -46.179688 35.078125 -44.359375 C 38.222656 -42.535156 40.675781 -39.859375 42.4375 -36.328125 C 44.207031 -32.804688 45.09375 -28.53125 45.09375 -23.5 C 45.09375 -18.238281 44.179688 -13.757812 42.359375 -10.0625 C 40.535156 -6.363281 37.976562 -3.570312 34.6875 -1.6875 C 31.394531 0.1875 27.578125 1.125 23.234375 1.125 Z M 23.9375 -5.109375 C 25.957031 -5.109375 27.457031 -6.265625 28.4375 -8.578125 C 29.425781 -10.890625 29.921875 -15.171875 29.921875 -21.421875 C 29.921875 -26.679688 29.660156 -30.726562 29.140625 -33.5625 C 28.617188 -36.394531 27.894531 -38.332031 26.96875 -39.375 C 26.039062 -40.414062 24.859375 -40.9375 23.421875 -40.9375 C 21.390625 -40.9375 19.867188 -39.78125 18.859375 -37.46875 C 17.847656 -35.15625 17.34375 -30.816406 17.34375 -24.453125 C 17.34375 -19.253906 17.601562 -15.25 18.125 -12.4375 C 18.644531 -9.632812 19.378906 -7.710938 20.328125 -6.671875 C 21.285156 -5.628906 22.488281 -5.109375 23.9375 -5.109375 Z M 23.9375 -5.109375 "/></g></g></g><g fill="#34252f" fill-opacity="1"><g transform="translate(675.282637, 87.800613)"><g><path d="M 51.34375 -2.34375 C 50.46875 -1.476562 48.914062 -0.785156 46.6875 -0.265625 C 44.46875 0.253906 42.347656 0.515625 40.328125 0.515625 C 37.835938 0.515625 36 0.0546875 34.8125 -0.859375 C 33.632812 -1.785156 33.046875 -3.265625 33.046875 -5.296875 L 33.046875 -32.34375 C 33.046875 -34.601562 32.550781 -36.222656 31.5625 -37.203125 C 30.582031 -38.179688 29.28125 -38.671875 27.65625 -38.671875 C 25.289062 -38.671875 23.300781 -37.71875 21.6875 -35.8125 L 21.6875 -9.359375 C 21.6875 -7.679688 22.046875 -6.46875 22.765625 -5.71875 C 23.484375 -4.96875 24.710938 -4.59375 26.453125 -4.59375 C 26.453125 -2.863281 25.785156 -1.332031 24.453125 0 L 4.765625 0 C 3.378906 -1.382812 2.6875 -2.914062 2.6875 -4.59375 C 4.425781 -4.59375 5.671875 -4.96875 6.421875 -5.71875 C 7.171875 -6.46875 7.546875 -7.679688 7.546875 -9.359375 L 7.546875 -34.6875 C 7.546875 -36.25 7.109375 -37.363281 6.234375 -38.03125 C 5.367188 -38.695312 3.867188 -39.03125 1.734375 -39.03125 L 1.734375 -42.921875 C 3.585938 -43.960938 6.203125 -44.914062 9.578125 -45.78125 C 12.960938 -46.65625 15.519531 -47.09375 17.25 -47.09375 C 18.582031 -47.09375 19.609375 -46.671875 20.328125 -45.828125 C 21.054688 -44.992188 21.476562 -43.421875 21.59375 -41.109375 C 23.09375 -42.953125 24.96875 -44.410156 27.21875 -45.484375 C 29.476562 -46.554688 32.023438 -47.09375 34.859375 -47.09375 C 39.023438 -47.09375 42.101562 -46.035156 44.09375 -43.921875 C 46.09375 -41.816406 47.09375 -38.363281 47.09375 -33.5625 L 47.09375 -9.890625 C 47.09375 -7.054688 48.476562 -5.378906 51.25 -4.859375 Z M 51.34375 -2.34375 "/></g></g></g></g></g><g clip-path="url(#8a1f595727)"><path fill="#34252f" d="M 148.210938 231.386719 L 566.796875 231.386719 L 569.324219 233.234375 L 569.324219 233.609375 L 566.519531 235.289062 L 148.519531 235.289062 L 146.546875 233.949219 L 146.546875 232.710938 Z M 148.210938 231.386719 " fill-opacity="1" fill-rule="evenodd"/></g><g fill="#34252f" fill-opacity="1"><g transform="translate(520.99117, 266.649299)"><g><path d="M 6.71875 -0.40625 L 6.71875 0 L 0.90625 0 L 0.90625 -0.40625 L 2.796875 -0.96875 L 2.796875 -14.765625 L 0.90625 -15.3125 L 0.90625 -15.734375 L 6.71875 -15.734375 L 6.71875 -15.3125 L 4.828125 -14.765625 L 4.828125 -0.96875 Z M 6.71875 -0.40625 "/></g></g></g><g fill="#34252f" fill-opacity="1"><g transform="translate(538.773651, 266.649299)"><g><path d="M 4.09375 -8.5625 L 4.09375 -0.875 L 5.828125 -0.390625 L 5.828125 0 L 0.5625 0 L 0.5625 -0.390625 L 2.28125 -0.875 L 2.28125 -8.4375 C 2.15625 -8.550781 1.96875 -8.671875 1.71875 -8.796875 C 1.476562 -8.929688 1.097656 -9.109375 0.578125 -9.328125 L 0.578125 -9.59375 L 3.6875 -10.71875 L 3.859375 -10.71875 Z M 7.4375 -0.390625 L 9.171875 -0.875 L 9.171875 -6.953125 C 9.171875 -7.398438 9.082031 -7.78125 8.90625 -8.09375 C 8.726562 -8.40625 8.460938 -8.644531 8.109375 -8.8125 C 7.753906 -8.988281 7.3125 -9.078125 6.78125 -9.078125 C 6.175781 -9.078125 5.613281 -8.972656 5.09375 -8.765625 C 4.570312 -8.554688 4.179688 -8.316406 3.921875 -8.046875 L 3.578125 -8.390625 C 4.046875 -8.816406 4.472656 -9.175781 4.859375 -9.46875 C 5.242188 -9.769531 5.609375 -10.007812 5.953125 -10.1875 C 6.304688 -10.363281 6.65625 -10.488281 7 -10.5625 C 7.351562 -10.632812 7.722656 -10.671875 8.109375 -10.671875 C 9.097656 -10.671875 9.820312 -10.375 10.28125 -9.78125 C 10.75 -9.1875 10.984375 -8.242188 10.984375 -6.953125 L 10.984375 -0.875 L 12.71875 -0.390625 L 12.71875 0 L 7.4375 0 Z M 7.4375 -0.390625 "/></g></g></g><g fill="#34252f" fill-opacity="1"><g transform="translate(561.873377, 266.649299)"><g><path d="M 10.421875 -9.59375 L 6.375 0.25 L 5.90625 0.25 L 1.34375 -9.484375 L -0.109375 -9.984375 L -0.109375 -10.4375 L 4.875 -10.4375 L 4.875 -9.984375 L 3.3125 -9.53125 L 6.828125 -1.984375 L 6.546875 -1.984375 L 9.484375 -9.59375 L 7.9375 -9.984375 L 7.9375 -10.4375 L 11.6875 -10.4375 L 11.6875 -9.984375 Z M 10.421875 -9.59375 "/></g></g></g><g fill="#34252f" fill-opacity="1"><g transform="translate(583.985455, 266.649299)"><g><path d="M 5.75 -10.671875 C 6.507812 -10.671875 7.171875 -10.503906 7.734375 -10.171875 C 8.296875 -9.847656 8.742188 -9.367188 9.078125 -8.734375 C 9.410156 -8.097656 9.613281 -7.316406 9.6875 -6.390625 L 2.46875 -6.390625 L 2.484375 -7.125 L 8.53125 -7.296875 L 7.71875 -6.828125 C 7.65625 -7.472656 7.535156 -8.019531 7.359375 -8.46875 C 7.179688 -8.925781 6.941406 -9.273438 6.640625 -9.515625 C 6.347656 -9.753906 5.976562 -9.875 5.53125 -9.875 C 4.957031 -9.875 4.460938 -9.71875 4.046875 -9.40625 C 3.628906 -9.09375 3.304688 -8.628906 3.078125 -8.015625 C 2.847656 -7.410156 2.734375 -6.675781 2.734375 -5.8125 C 2.734375 -4.8125 2.898438 -3.972656 3.234375 -3.296875 C 3.566406 -2.617188 4.035156 -2.101562 4.640625 -1.75 C 5.253906 -1.40625 5.976562 -1.234375 6.8125 -1.234375 C 7.144531 -1.234375 7.472656 -1.273438 7.796875 -1.359375 C 8.117188 -1.453125 8.429688 -1.585938 8.734375 -1.765625 C 9.035156 -1.953125 9.3125 -2.175781 9.5625 -2.4375 L 9.8125 -2.1875 C 9.40625 -1.613281 8.988281 -1.148438 8.5625 -0.796875 C 8.132812 -0.441406 7.6875 -0.179688 7.21875 -0.015625 C 6.75 0.148438 6.242188 0.234375 5.703125 0.234375 C 4.773438 0.234375 3.945312 0.015625 3.21875 -0.421875 C 2.488281 -0.859375 1.910156 -1.472656 1.484375 -2.265625 C 1.066406 -3.054688 0.859375 -3.988281 0.859375 -5.0625 C 0.859375 -6.082031 1.050781 -7.015625 1.4375 -7.859375 C 1.832031 -8.710938 2.394531 -9.394531 3.125 -9.90625 C 3.851562 -10.414062 4.726562 -10.671875 5.75 -10.671875 Z M 5.75 -10.671875 "/></g></g></g><g fill="#34252f" fill-opacity="1"><g transform="translate(604.650509, 266.649299)"><g><path d="M 4.703125 -10.671875 C 5.160156 -10.671875 5.578125 -10.625 5.953125 -10.53125 C 6.328125 -10.4375 6.734375 -10.28125 7.171875 -10.0625 L 7.40625 -7.203125 L 6.953125 -7.203125 L 5.71875 -10.109375 L 6.53125 -9.125 C 6.207031 -9.414062 5.898438 -9.628906 5.609375 -9.765625 C 5.316406 -9.898438 4.984375 -9.96875 4.609375 -9.96875 C 4.003906 -9.96875 3.53125 -9.832031 3.1875 -9.5625 C 2.84375 -9.289062 2.671875 -8.910156 2.671875 -8.421875 C 2.671875 -8.054688 2.757812 -7.75 2.9375 -7.5 C 3.125 -7.257812 3.390625 -7.035156 3.734375 -6.828125 C 4.085938 -6.628906 4.53125 -6.421875 5.0625 -6.203125 C 5.457031 -6.035156 5.8125 -5.851562 6.125 -5.65625 C 6.445312 -5.457031 6.722656 -5.226562 6.953125 -4.96875 C 7.179688 -4.71875 7.359375 -4.425781 7.484375 -4.09375 C 7.609375 -3.769531 7.671875 -3.390625 7.671875 -2.953125 C 7.671875 -2.296875 7.5 -1.726562 7.15625 -1.25 C 6.820312 -0.769531 6.363281 -0.398438 5.78125 -0.140625 C 5.207031 0.109375 4.5625 0.234375 3.84375 0.234375 C 3.351562 0.234375 2.914062 0.191406 2.53125 0.109375 C 2.144531 0.0234375 1.765625 -0.101562 1.390625 -0.28125 L 0.828125 -3.328125 L 1.328125 -3.328125 L 2.984375 -0.171875 L 1.859375 -0.96875 C 2.117188 -0.832031 2.347656 -0.722656 2.546875 -0.640625 C 2.753906 -0.566406 2.945312 -0.515625 3.125 -0.484375 C 3.3125 -0.460938 3.503906 -0.453125 3.703125 -0.453125 C 4.398438 -0.453125 4.976562 -0.609375 5.4375 -0.921875 C 5.894531 -1.242188 6.125 -1.722656 6.125 -2.359375 C 6.125 -2.671875 6.054688 -2.9375 5.921875 -3.15625 C 5.796875 -3.382812 5.613281 -3.585938 5.375 -3.765625 C 5.132812 -3.941406 4.851562 -4.109375 4.53125 -4.265625 C 4.21875 -4.421875 3.878906 -4.582031 3.515625 -4.75 C 3.023438 -4.96875 2.609375 -5.210938 2.265625 -5.484375 C 1.921875 -5.753906 1.65625 -6.082031 1.46875 -6.46875 C 1.289062 -6.851562 1.203125 -7.304688 1.203125 -7.828125 C 1.203125 -8.429688 1.359375 -8.941406 1.671875 -9.359375 C 1.984375 -9.785156 2.398438 -10.109375 2.921875 -10.328125 C 3.453125 -10.554688 4.046875 -10.671875 4.703125 -10.671875 Z M 4.703125 -10.671875 "/></g></g></g><g fill="#34252f" fill-opacity="1"><g transform="translate(623.432127, 266.649299)"><g><path d="M 3.6875 -2.84375 C 3.6875 -2.3125 3.847656 -1.910156 4.171875 -1.640625 C 4.492188 -1.367188 4.945312 -1.234375 5.53125 -1.234375 C 5.8125 -1.234375 6.117188 -1.257812 6.453125 -1.3125 C 6.785156 -1.375 7.15625 -1.46875 7.5625 -1.59375 L 7.5625 -1.125 C 7.039062 -0.769531 6.59375 -0.492188 6.21875 -0.296875 C 5.84375 -0.109375 5.515625 0.0195312 5.234375 0.09375 C 4.953125 0.164062 4.671875 0.203125 4.390625 0.203125 C 3.898438 0.203125 3.46875 0.109375 3.09375 -0.078125 C 2.71875 -0.273438 2.414062 -0.566406 2.1875 -0.953125 C 1.96875 -1.347656 1.859375 -1.847656 1.859375 -2.453125 L 1.859375 -8.921875 L 0.546875 -9.796875 L 0.546875 -9.984375 C 0.691406 -10.078125 0.84375 -10.179688 1 -10.296875 C 1.15625 -10.421875 1.328125 -10.546875 1.515625 -10.671875 C 1.703125 -10.804688 1.894531 -10.945312 2.09375 -11.09375 C 2.289062 -11.25 2.5 -11.40625 2.71875 -11.5625 C 2.945312 -11.726562 3.175781 -11.894531 3.40625 -12.0625 L 3.6875 -12.0625 Z M 3.015625 -9.328125 L 3.015625 -10.4375 L 7.25 -10.4375 L 7.0625 -9.328125 Z M 3.015625 -9.328125 "/></g></g></g><g fill="#34252f" fill-opacity="1"><g transform="translate(641.283513, 266.649299)"><g><path d="M 3.0625 -13.640625 C 2.632812 -13.640625 2.285156 -13.78125 2.015625 -14.0625 C 1.753906 -14.351562 1.625 -14.695312 1.625 -15.09375 C 1.625 -15.476562 1.753906 -15.804688 2.015625 -16.078125 C 2.285156 -16.347656 2.632812 -16.484375 3.0625 -16.484375 C 3.5 -16.484375 3.84375 -16.347656 4.09375 -16.078125 C 4.351562 -15.804688 4.484375 -15.476562 4.484375 -15.09375 C 4.484375 -14.695312 4.351562 -14.351562 4.09375 -14.0625 C 3.84375 -13.78125 3.5 -13.640625 3.0625 -13.640625 Z M 4.171875 -10.71875 L 4.125 -8.734375 L 4.125 -0.875 L 5.859375 -0.390625 L 5.859375 0 L 0.578125 0 L 0.578125 -0.390625 L 2.296875 -0.875 L 2.296875 -8.53125 C 2.210938 -8.601562 2.082031 -8.695312 1.90625 -8.8125 C 1.726562 -8.925781 1.523438 -9.039062 1.296875 -9.15625 C 1.078125 -9.269531 0.851562 -9.375 0.625 -9.46875 L 0.625 -9.765625 L 4.015625 -10.71875 Z M 4.171875 -10.71875 "/></g></g></g><g fill="#34252f" fill-opacity="1"><g transform="translate(657.641937, 266.649299)"><g><path d="M 4.9375 5.828125 C 4.144531 5.828125 3.453125 5.765625 2.859375 5.640625 C 2.265625 5.515625 1.769531 5.332031 1.375 5.09375 C 0.976562 4.863281 0.679688 4.582031 0.484375 4.25 C 0.285156 3.914062 0.1875 3.546875 0.1875 3.140625 C 0.1875 2.828125 0.265625 2.53125 0.421875 2.25 C 0.578125 1.976562 0.820312 1.722656 1.15625 1.484375 C 1.5 1.242188 1.9375 1.019531 2.46875 0.8125 C 3.007812 0.613281 3.664062 0.4375 4.4375 0.28125 L 5.078125 0.28125 L 5.078125 0.53125 C 4.253906 0.65625 3.609375 0.835938 3.140625 1.078125 C 2.679688 1.316406 2.351562 1.59375 2.15625 1.90625 C 1.957031 2.226562 1.859375 2.578125 1.859375 2.953125 C 1.859375 3.410156 1.984375 3.800781 2.234375 4.125 C 2.484375 4.445312 2.859375 4.695312 3.359375 4.875 C 3.859375 5.050781 4.476562 5.140625 5.21875 5.140625 C 6 5.140625 6.664062 5.03125 7.21875 4.8125 C 7.78125 4.59375 8.207031 4.300781 8.5 3.9375 C 8.800781 3.582031 8.953125 3.1875 8.953125 2.75 C 8.953125 2.4375 8.878906 2.171875 8.734375 1.953125 C 8.585938 1.734375 8.351562 1.550781 8.03125 1.40625 C 7.707031 1.257812 7.28125 1.140625 6.75 1.046875 C 6.21875 0.960938 5.566406 0.894531 4.796875 0.84375 C 4.085938 0.789062 3.503906 0.691406 3.046875 0.546875 C 2.585938 0.410156 2.226562 0.238281 1.96875 0.03125 C 1.707031 -0.164062 1.523438 -0.390625 1.421875 -0.640625 C 1.316406 -0.898438 1.265625 -1.175781 1.265625 -1.46875 C 1.265625 -2.007812 1.507812 -2.46875 2 -2.84375 C 2.5 -3.21875 3.171875 -3.503906 4.015625 -3.703125 L 4.265625 -3.46875 C 3.804688 -3.425781 3.46875 -3.296875 3.25 -3.078125 C 3.03125 -2.859375 2.921875 -2.59375 2.921875 -2.28125 C 2.921875 -2.09375 2.957031 -1.921875 3.03125 -1.765625 C 3.101562 -1.609375 3.242188 -1.472656 3.453125 -1.359375 C 3.660156 -1.242188 3.96875 -1.144531 4.375 -1.0625 C 4.789062 -0.988281 5.332031 -0.925781 6 -0.875 C 6.738281 -0.820312 7.390625 -0.726562 7.953125 -0.59375 C 8.523438 -0.457031 9.003906 -0.269531 9.390625 -0.03125 C 9.785156 0.195312 10.082031 0.476562 10.28125 0.8125 C 10.488281 1.15625 10.59375 1.566406 10.59375 2.046875 C 10.59375 2.703125 10.375 3.316406 9.9375 3.890625 C 9.5 4.472656 8.851562 4.941406 8 5.296875 C 7.15625 5.648438 6.132812 5.828125 4.9375 5.828125 Z M 5.03125 -3.265625 C 4.257812 -3.265625 3.554688 -3.421875 2.921875 -3.734375 C 2.296875 -4.054688 1.800781 -4.492188 1.4375 -5.046875 C 1.070312 -5.609375 0.890625 -6.242188 0.890625 -6.953125 C 0.890625 -7.679688 1.070312 -8.328125 1.4375 -8.890625 C 1.800781 -9.453125 2.296875 -9.890625 2.921875 -10.203125 C 3.554688 -10.515625 4.257812 -10.671875 5.03125 -10.671875 C 5.625 -10.671875 6.171875 -10.578125 6.671875 -10.390625 C 7.179688 -10.210938 7.625 -9.957031 8 -9.625 C 8.375 -9.289062 8.664062 -8.898438 8.875 -8.453125 C 9.09375 -8.003906 9.203125 -7.507812 9.203125 -6.96875 C 9.203125 -6.25 9.015625 -5.609375 8.640625 -5.046875 C 8.273438 -4.492188 7.78125 -4.054688 7.15625 -3.734375 C 6.53125 -3.421875 5.820312 -3.265625 5.03125 -3.265625 Z M 5.21875 -3.90625 C 5.90625 -3.9375 6.425781 -4.234375 6.78125 -4.796875 C 7.132812 -5.359375 7.296875 -6.09375 7.265625 -7 C 7.222656 -7.945312 6.984375 -8.691406 6.546875 -9.234375 C 6.117188 -9.785156 5.550781 -10.050781 4.84375 -10.03125 C 4.1875 -10 3.675781 -9.703125 3.3125 -9.140625 C 2.945312 -8.585938 2.78125 -7.859375 2.8125 -6.953125 C 2.851562 -6.015625 3.085938 -5.265625 3.515625 -4.703125 C 3.953125 -4.148438 4.519531 -3.882812 5.21875 -3.90625 Z M 6.46875 -9.984375 L 6.0625 -10.53125 C 6.726562 -10.457031 7.300781 -10.421875 7.78125 -10.421875 C 8.257812 -10.429688 8.664062 -10.460938 9 -10.515625 C 9.34375 -10.566406 9.632812 -10.613281 9.875 -10.65625 C 10.125 -10.707031 10.351562 -10.734375 10.5625 -10.734375 C 10.789062 -10.734375 10.960938 -10.664062 11.078125 -10.53125 C 11.203125 -10.40625 11.265625 -10.207031 11.265625 -9.9375 C 11.265625 -9.59375 11.160156 -9.3125 10.953125 -9.09375 C 10.742188 -8.882812 10.503906 -8.78125 10.234375 -8.78125 C 10.035156 -8.78125 9.835938 -8.835938 9.640625 -8.953125 C 9.453125 -9.066406 9.226562 -9.203125 8.96875 -9.359375 C 8.71875 -9.515625 8.390625 -9.648438 7.984375 -9.765625 C 7.585938 -9.890625 7.082031 -9.960938 6.46875 -9.984375 Z M 6.46875 -9.984375 "/></g></g></g><g fill="#34252f" fill-opacity="1"><g transform="translate(678.961592, 266.649299)"><g><path d="M 7.296875 -6.703125 L 7.46875 -6 C 6.507812 -5.757812 5.726562 -5.515625 5.125 -5.265625 C 4.519531 -5.023438 4.050781 -4.78125 3.71875 -4.53125 C 3.382812 -4.28125 3.15625 -4.015625 3.03125 -3.734375 C 2.90625 -3.453125 2.84375 -3.148438 2.84375 -2.828125 C 2.84375 -2.253906 3.003906 -1.820312 3.328125 -1.53125 C 3.660156 -1.238281 4.070312 -1.09375 4.5625 -1.09375 C 4.945312 -1.09375 5.289062 -1.179688 5.59375 -1.359375 C 5.90625 -1.535156 6.148438 -1.78125 6.328125 -2.09375 C 6.515625 -2.40625 6.609375 -2.753906 6.609375 -3.140625 L 6.609375 -7.65625 C 6.609375 -8.289062 6.445312 -8.785156 6.125 -9.140625 C 5.8125 -9.492188 5.304688 -9.671875 4.609375 -9.671875 C 4.328125 -9.671875 4.023438 -9.632812 3.703125 -9.5625 C 3.378906 -9.5 3.085938 -9.398438 2.828125 -9.265625 L 3.421875 -9.765625 C 3.398438 -9.535156 3.363281 -9.296875 3.3125 -9.046875 C 3.269531 -8.804688 3.21875 -8.585938 3.15625 -8.390625 C 3.09375 -8.191406 3.015625 -8.046875 2.921875 -7.953125 C 2.804688 -7.816406 2.65625 -7.71875 2.46875 -7.65625 C 2.28125 -7.59375 2.085938 -7.5625 1.890625 -7.5625 C 1.648438 -7.5625 1.453125 -7.617188 1.296875 -7.734375 C 1.148438 -7.847656 1.078125 -8 1.078125 -8.1875 C 1.078125 -8.445312 1.207031 -8.71875 1.46875 -9 C 1.726562 -9.28125 2.066406 -9.539062 2.484375 -9.78125 C 2.898438 -10.03125 3.359375 -10.226562 3.859375 -10.375 C 4.367188 -10.519531 4.875 -10.59375 5.375 -10.59375 C 6.113281 -10.59375 6.707031 -10.484375 7.15625 -10.265625 C 7.601562 -10.054688 7.925781 -9.742188 8.125 -9.328125 C 8.320312 -8.910156 8.421875 -8.410156 8.421875 -7.828125 L 8.421875 -2.0625 C 8.421875 -1.8125 8.457031 -1.609375 8.53125 -1.453125 C 8.601562 -1.296875 8.707031 -1.175781 8.84375 -1.09375 C 8.988281 -1.019531 9.160156 -0.984375 9.359375 -0.984375 C 9.554688 -0.984375 9.765625 -1.019531 9.984375 -1.09375 C 10.210938 -1.175781 10.4375 -1.285156 10.65625 -1.421875 L 10.65625 -0.96875 C 10.257812 -0.507812 9.867188 -0.195312 9.484375 -0.03125 C 9.109375 0.132812 8.742188 0.21875 8.390625 0.21875 C 7.992188 0.21875 7.664062 0.128906 7.40625 -0.046875 C 7.144531 -0.234375 6.945312 -0.492188 6.8125 -0.828125 C 6.6875 -1.160156 6.617188 -1.554688 6.609375 -2.015625 L 6.671875 -2.09375 C 6.566406 -1.632812 6.375 -1.234375 6.09375 -0.890625 C 5.8125 -0.546875 5.472656 -0.269531 5.078125 -0.0625 C 4.691406 0.132812 4.273438 0.234375 3.828125 0.234375 C 2.992188 0.234375 2.304688 0.00390625 1.765625 -0.453125 C 1.222656 -0.910156 0.953125 -1.566406 0.953125 -2.421875 C 0.953125 -2.867188 1.035156 -3.273438 1.203125 -3.640625 C 1.378906 -4.003906 1.695312 -4.347656 2.15625 -4.671875 C 2.613281 -5.003906 3.257812 -5.332031 4.09375 -5.65625 C 4.925781 -5.976562 5.992188 -6.328125 7.296875 -6.703125 Z M 7.296875 -6.703125 "/></g></g></g><g fill="#34252f" fill-opacity="1"><g transform="translate(699.626645, 266.649299)"><g><path d="M 3.6875 -2.84375 C 3.6875 -2.3125 3.847656 -1.910156 4.171875 -1.640625 C 4.492188 -1.367188 4.945312 -1.234375 5.53125 -1.234375 C 5.8125 -1.234375 6.117188 -1.257812 6.453125 -1.3125 C 6.785156 -1.375 7.15625 -1.46875 7.5625 -1.59375 L 7.5625 -1.125 C 7.039062 -0.769531 6.59375 -0.492188 6.21875 -0.296875 C 5.84375 -0.109375 5.515625 0.0195312 5.234375 0.09375 C 4.953125 0.164062 4.671875 0.203125 4.390625 0.203125 C 3.898438 0.203125 3.46875 0.109375 3.09375 -0.078125 C 2.71875 -0.273438 2.414062 -0.566406 2.1875 -0.953125 C 1.96875 -1.347656 1.859375 -1.847656 1.859375 -2.453125 L 1.859375 -8.921875 L 0.546875 -9.796875 L 0.546875 -9.984375 C 0.691406 -10.078125 0.84375 -10.179688 1 -10.296875 C 1.15625 -10.421875 1.328125 -10.546875 1.515625 -10.671875 C 1.703125 -10.804688 1.894531 -10.945312 2.09375 -11.09375 C 2.289062 -11.25 2.5 -11.40625 2.71875 -11.5625 C 2.945312 -11.726562 3.175781 -11.894531 3.40625 -12.0625 L 3.6875 -12.0625 Z M 3.015625 -9.328125 L 3.015625 -10.4375 L 7.25 -10.4375 L 7.0625 -9.328125 Z M 3.015625 -9.328125 "/></g></g></g><g fill="#34252f" fill-opacity="1"><g transform="translate(717.478019, 266.649299)"><g><path d="M 3.0625 -13.640625 C 2.632812 -13.640625 2.285156 -13.78125 2.015625 -14.0625 C 1.753906 -14.351562 1.625 -14.695312 1.625 -15.09375 C 1.625 -15.476562 1.753906 -15.804688 2.015625 -16.078125 C 2.285156 -16.347656 2.632812 -16.484375 3.0625 -16.484375 C 3.5 -16.484375 3.84375 -16.347656 4.09375 -16.078125 C 4.351562 -15.804688 4.484375 -15.476562 4.484375 -15.09375 C 4.484375 -14.695312 4.351562 -14.351562 4.09375 -14.0625 C 3.84375 -13.78125 3.5 -13.640625 3.0625 -13.640625 Z M 4.171875 -10.71875 L 4.125 -8.734375 L 4.125 -0.875 L 5.859375 -0.390625 L 5.859375 0 L 0.578125 0 L 0.578125 -0.390625 L 2.296875 -0.875 L 2.296875 -8.53125 C 2.210938 -8.601562 2.082031 -8.695312 1.90625 -8.8125 C 1.726562 -8.925781 1.523438 -9.039062 1.296875 -9.15625 C 1.078125 -9.269531 0.851562 -9.375 0.625 -9.46875 L 0.625 -9.765625 L 4.015625 -10.71875 Z M 4.171875 -10.71875 "/></g></g></g><g fill="#34252f" fill-opacity="1"><g transform="translate(733.836455, 266.649299)"><g><path d="M 10.421875 -9.59375 L 6.375 0.25 L 5.90625 0.25 L 1.34375 -9.484375 L -0.109375 -9.984375 L -0.109375 -10.4375 L 4.875 -10.4375 L 4.875 -9.984375 L 3.3125 -9.53125 L 6.828125 -1.984375 L 6.546875 -1.984375 L 9.484375 -9.59375 L 7.9375 -9.984375 L 7.9375 -10.4375 L 11.6875 -10.4375 L 11.6875 -9.984375 Z M 10.421875 -9.59375 "/></g></g></g><g fill="#34252f" fill-opacity="1"><g transform="translate(755.948522, 266.649299)"><g><path d="M 5.75 -10.671875 C 6.507812 -10.671875 7.171875 -10.503906 7.734375 -10.171875 C 8.296875 -9.847656 8.742188 -9.367188 9.078125 -8.734375 C 9.410156 -8.097656 9.613281 -7.316406 9.6875 -6.390625 L 2.46875 -6.390625 L 2.484375 -7.125 L 8.53125 -7.296875 L 7.71875 -6.828125 C 7.65625 -7.472656 7.535156 -8.019531 7.359375 -8.46875 C 7.179688 -8.925781 6.941406 -9.273438 6.640625 -9.515625 C 6.347656 -9.753906 5.976562 -9.875 5.53125 -9.875 C 4.957031 -9.875 4.460938 -9.71875 4.046875 -9.40625 C 3.628906 -9.09375 3.304688 -8.628906 3.078125 -8.015625 C 2.847656 -7.410156 2.734375 -6.675781 2.734375 -5.8125 C 2.734375 -4.8125 2.898438 -3.972656 3.234375 -3.296875 C 3.566406 -2.617188 4.035156 -2.101562 4.640625 -1.75 C 5.253906 -1.40625 5.976562 -1.234375 6.8125 -1.234375 C 7.144531 -1.234375 7.472656 -1.273438 7.796875 -1.359375 C 8.117188 -1.453125 8.429688 -1.585938 8.734375 -1.765625 C 9.035156 -1.953125 9.3125 -2.175781 9.5625 -2.4375 L 9.8125 -2.1875 C 9.40625 -1.613281 8.988281 -1.148438 8.5625 -0.796875 C 8.132812 -0.441406 7.6875 -0.179688 7.21875 -0.015625 C 6.75 0.148438 6.242188 0.234375 5.703125 0.234375 C 4.773438 0.234375 3.945312 0.015625 3.21875 -0.421875 C 2.488281 -0.859375 1.910156 -1.472656 1.484375 -2.265625 C 1.066406 -3.054688 0.859375 -3.988281 0.859375 -5.0625 C 0.859375 -6.082031 1.050781 -7.015625 1.4375 -7.859375 C 1.832031 -8.710938 2.394531 -9.394531 3.125 -9.90625 C 3.851562 -10.414062 4.726562 -10.671875 5.75 -10.671875 Z M 5.75 -10.671875 "/></g></g></g><g fill="#34252f" fill-opacity="1"><g transform="translate(776.613575, 266.649299)"><g/></g></g><g fill="#34252f" fill-opacity="1"><g transform="translate(791.949916, 266.649299)"><g><path d="M 7.0625 -5.3125 C 7.0625 -4.4375 6.914062 -3.648438 6.625 -2.953125 C 6.332031 -2.265625 5.9375 -1.679688 5.4375 -1.203125 C 4.945312 -0.734375 4.390625 -0.375 3.765625 -0.125 C 3.148438 0.113281 2.507812 0.234375 1.84375 0.234375 C 1.507812 0.234375 1.210938 0.179688 0.953125 0.078125 C 0.703125 -0.015625 0.503906 -0.15625 0.359375 -0.34375 C 0.222656 -0.53125 0.15625 -0.75 0.15625 -1 C 0.15625 -1.257812 0.238281 -1.484375 0.40625 -1.671875 C 0.570312 -1.867188 0.800781 -1.96875 1.09375 -1.96875 C 1.21875 -1.96875 1.359375 -1.914062 1.515625 -1.8125 C 1.671875 -1.707031 1.84375 -1.585938 2.03125 -1.453125 C 2.21875 -1.316406 2.421875 -1.195312 2.640625 -1.09375 C 2.859375 -1 3.085938 -0.953125 3.328125 -0.953125 C 3.828125 -0.953125 4.234375 -1.144531 4.546875 -1.53125 C 4.867188 -1.914062 5.03125 -2.582031 5.03125 -3.53125 L 5.03125 -14.765625 L 3.140625 -15.3125 L 3.140625 -15.734375 L 8.921875 -15.734375 L 8.921875 -15.3125 L 7.046875 -14.765625 Z M 7.0625 -5.3125 "/></g></g></g><g fill="#34252f" fill-opacity="1"><g transform="translate(811.627321, 266.649299)"><g><path d="M 6.046875 -0.53125 C 6.679688 -0.53125 7.234375 -0.691406 7.703125 -1.015625 C 8.171875 -1.335938 8.535156 -1.832031 8.796875 -2.5 C 9.054688 -3.175781 9.1875 -4.019531 9.1875 -5.03125 C 9.1875 -6.09375 9.054688 -6.984375 8.796875 -7.703125 C 8.546875 -8.429688 8.179688 -8.976562 7.703125 -9.34375 C 7.234375 -9.71875 6.675781 -9.90625 6.03125 -9.90625 C 5.394531 -9.90625 4.84375 -9.742188 4.375 -9.421875 C 3.90625 -9.097656 3.539062 -8.601562 3.28125 -7.9375 C 3.019531 -7.269531 2.890625 -6.425781 2.890625 -5.40625 C 2.890625 -4.351562 3.015625 -3.460938 3.265625 -2.734375 C 3.523438 -2.003906 3.890625 -1.453125 4.359375 -1.078125 C 4.835938 -0.710938 5.398438 -0.53125 6.046875 -0.53125 Z M 6 0.234375 C 5.007812 0.234375 4.125 0.00390625 3.34375 -0.453125 C 2.570312 -0.910156 1.960938 -1.546875 1.515625 -2.359375 C 1.066406 -3.171875 0.84375 -4.097656 0.84375 -5.140625 C 0.84375 -6.210938 1.070312 -7.164062 1.53125 -8 C 2 -8.832031 2.625 -9.484375 3.40625 -9.953125 C 4.195312 -10.429688 5.085938 -10.671875 6.078125 -10.671875 C 7.078125 -10.671875 7.960938 -10.441406 8.734375 -9.984375 C 9.515625 -9.523438 10.125 -8.890625 10.5625 -8.078125 C 11.007812 -7.273438 11.234375 -6.347656 11.234375 -5.296875 C 11.234375 -4.222656 11 -3.269531 10.53125 -2.4375 C 10.070312 -1.601562 9.445312 -0.945312 8.65625 -0.46875 C 7.863281 0 6.976562 0.234375 6 0.234375 Z M 6 0.234375 "/></g></g></g><g fill="#34252f" fill-opacity="1"><g transform="translate(833.865708, 266.649299)"><g><path d="M 3.765625 -3.359375 C 3.765625 -2.878906 3.835938 -2.488281 3.984375 -2.1875 C 4.128906 -1.894531 4.363281 -1.679688 4.6875 -1.546875 C 5.019531 -1.410156 5.460938 -1.34375 6.015625 -1.34375 C 6.566406 -1.34375 7.09375 -1.4375 7.59375 -1.625 C 8.101562 -1.820312 8.484375 -2.0625 8.734375 -2.34375 L 9.078125 -1.96875 C 8.617188 -1.539062 8.207031 -1.1875 7.84375 -0.90625 C 7.476562 -0.625 7.128906 -0.398438 6.796875 -0.234375 C 6.472656 -0.0664062 6.148438 0.0507812 5.828125 0.125 C 5.515625 0.195312 5.164062 0.234375 4.78125 0.234375 C 3.800781 0.234375 3.082031 -0.0625 2.625 -0.65625 C 2.164062 -1.25 1.9375 -2.148438 1.9375 -3.359375 L 1.9375 -9.375 L 0.171875 -9.96875 L 0.171875 -10.421875 L 3.875 -10.59375 L 3.765625 -9.390625 Z M 8.5625 0.21875 L 8.4375 -1.890625 L 8.4375 -9.375 L 6.671875 -9.96875 L 6.671875 -10.421875 L 10.390625 -10.59375 L 10.28125 -9.390625 L 10.28125 -1.453125 C 10.34375 -1.390625 10.4375 -1.320312 10.5625 -1.25 C 10.695312 -1.1875 10.835938 -1.117188 10.984375 -1.046875 C 11.140625 -0.984375 11.289062 -0.921875 11.4375 -0.859375 C 11.59375 -0.804688 11.734375 -0.769531 11.859375 -0.75 L 11.859375 -0.4375 L 8.734375 0.21875 Z M 8.5625 0.21875 "/></g></g></g><g fill="#34252f" fill-opacity="1"><g transform="translate(856.264907, 266.649299)"><g><path d="M 7.515625 -10.609375 C 7.890625 -10.609375 8.164062 -10.515625 8.34375 -10.328125 C 8.53125 -10.140625 8.625 -9.894531 8.625 -9.59375 C 8.625 -9.21875 8.503906 -8.921875 8.265625 -8.703125 C 8.035156 -8.484375 7.726562 -8.375 7.34375 -8.375 C 7.175781 -8.375 7.003906 -8.398438 6.828125 -8.453125 C 6.660156 -8.515625 6.484375 -8.570312 6.296875 -8.625 C 6.109375 -8.675781 5.898438 -8.703125 5.671875 -8.703125 C 5.484375 -8.703125 5.285156 -8.671875 5.078125 -8.609375 C 4.867188 -8.546875 4.660156 -8.460938 4.453125 -8.359375 C 4.253906 -8.253906 4.070312 -8.128906 3.90625 -7.984375 L 3.734375 -8.421875 C 4.222656 -8.847656 4.660156 -9.203125 5.046875 -9.484375 C 5.429688 -9.765625 5.769531 -9.988281 6.0625 -10.15625 C 6.363281 -10.320312 6.628906 -10.4375 6.859375 -10.5 C 7.097656 -10.570312 7.316406 -10.609375 7.515625 -10.609375 Z M 4.09375 -8.5625 L 4.09375 -0.875 L 5.90625 -0.390625 L 5.90625 0 L 0.5625 0 L 0.5625 -0.390625 L 2.28125 -0.875 L 2.28125 -8.4375 C 2.175781 -8.53125 2.046875 -8.617188 1.890625 -8.703125 C 1.742188 -8.785156 1.5625 -8.878906 1.34375 -8.984375 C 1.125 -9.085938 0.867188 -9.203125 0.578125 -9.328125 L 0.578125 -9.59375 L 3.828125 -10.71875 L 4.015625 -10.71875 Z M 4.09375 -8.5625 "/></g></g></g><g fill="#34252f" fill-opacity="1"><g transform="translate(875.264708, 266.649299)"><g><path d="M 4.09375 -8.5625 L 4.09375 -0.875 L 5.828125 -0.390625 L 5.828125 0 L 0.5625 0 L 0.5625 -0.390625 L 2.28125 -0.875 L 2.28125 -8.4375 C 2.15625 -8.550781 1.96875 -8.671875 1.71875 -8.796875 C 1.476562 -8.929688 1.097656 -9.109375 0.578125 -9.328125 L 0.578125 -9.59375 L 3.6875 -10.71875 L 3.859375 -10.71875 Z M 7.4375 -0.390625 L 9.171875 -0.875 L 9.171875 -6.953125 C 9.171875 -7.398438 9.082031 -7.78125 8.90625 -8.09375 C 8.726562 -8.40625 8.460938 -8.644531 8.109375 -8.8125 C 7.753906 -8.988281 7.3125 -9.078125 6.78125 -9.078125 C 6.175781 -9.078125 5.613281 -8.972656 5.09375 -8.765625 C 4.570312 -8.554688 4.179688 -8.316406 3.921875 -8.046875 L 3.578125 -8.390625 C 4.046875 -8.816406 4.472656 -9.175781 4.859375 -9.46875 C 5.242188 -9.769531 5.609375 -10.007812 5.953125 -10.1875 C 6.304688 -10.363281 6.65625 -10.488281 7 -10.5625 C 7.351562 -10.632812 7.722656 -10.671875 8.109375 -10.671875 C 9.097656 -10.671875 9.820312 -10.375 10.28125 -9.78125 C 10.75 -9.1875 10.984375 -8.242188 10.984375 -6.953125 L 10.984375 -0.875 L 12.71875 -0.390625 L 12.71875 0 L 7.4375 0 Z M 7.4375 -0.390625 "/></g></g></g><g fill="#34252f" fill-opacity="1"><g transform="translate(898.364445, 266.649299)"><g><path d="M 7.296875 -6.703125 L 7.46875 -6 C 6.507812 -5.757812 5.726562 -5.515625 5.125 -5.265625 C 4.519531 -5.023438 4.050781 -4.78125 3.71875 -4.53125 C 3.382812 -4.28125 3.15625 -4.015625 3.03125 -3.734375 C 2.90625 -3.453125 2.84375 -3.148438 2.84375 -2.828125 C 2.84375 -2.253906 3.003906 -1.820312 3.328125 -1.53125 C 3.660156 -1.238281 4.070312 -1.09375 4.5625 -1.09375 C 4.945312 -1.09375 5.289062 -1.179688 5.59375 -1.359375 C 5.90625 -1.535156 6.148438 -1.78125 6.328125 -2.09375 C 6.515625 -2.40625 6.609375 -2.753906 6.609375 -3.140625 L 6.609375 -7.65625 C 6.609375 -8.289062 6.445312 -8.785156 6.125 -9.140625 C 5.8125 -9.492188 5.304688 -9.671875 4.609375 -9.671875 C 4.328125 -9.671875 4.023438 -9.632812 3.703125 -9.5625 C 3.378906 -9.5 3.085938 -9.398438 2.828125 -9.265625 L 3.421875 -9.765625 C 3.398438 -9.535156 3.363281 -9.296875 3.3125 -9.046875 C 3.269531 -8.804688 3.21875 -8.585938 3.15625 -8.390625 C 3.09375 -8.191406 3.015625 -8.046875 2.921875 -7.953125 C 2.804688 -7.816406 2.65625 -7.71875 2.46875 -7.65625 C 2.28125 -7.59375 2.085938 -7.5625 1.890625 -7.5625 C 1.648438 -7.5625 1.453125 -7.617188 1.296875 -7.734375 C 1.148438 -7.847656 1.078125 -8 1.078125 -8.1875 C 1.078125 -8.445312 1.207031 -8.71875 1.46875 -9 C 1.726562 -9.28125 2.066406 -9.539062 2.484375 -9.78125 C 2.898438 -10.03125 3.359375 -10.226562 3.859375 -10.375 C 4.367188 -10.519531 4.875 -10.59375 5.375 -10.59375 C 6.113281 -10.59375 6.707031 -10.484375 7.15625 -10.265625 C 7.601562 -10.054688 7.925781 -9.742188 8.125 -9.328125 C 8.320312 -8.910156 8.421875 -8.410156 8.421875 -7.828125 L 8.421875 -2.0625 C 8.421875 -1.8125 8.457031 -1.609375 8.53125 -1.453125 C 8.601562 -1.296875 8.707031 -1.175781 8.84375 -1.09375 C 8.988281 -1.019531 9.160156 -0.984375 9.359375 -0.984375 C 9.554688 -0.984375 9.765625 -1.019531 9.984375 -1.09375 C 10.210938 -1.175781 10.4375 -1.285156 10.65625 -1.421875 L 10.65625 -0.96875 C 10.257812 -0.507812 9.867188 -0.195312 9.484375 -0.03125 C 9.109375 0.132812 8.742188 0.21875 8.390625 0.21875 C 7.992188 0.21875 7.664062 0.128906 7.40625 -0.046875 C 7.144531 -0.234375 6.945312 -0.492188 6.8125 -0.828125 C 6.6875 -1.160156 6.617188 -1.554688 6.609375 -2.015625 L 6.671875 -2.09375 C 6.566406 -1.632812 6.375 -1.234375 6.09375 -0.890625 C 5.8125 -0.546875 5.472656 -0.269531 5.078125 -0.0625 C 4.691406 0.132812 4.273438 0.234375 3.828125 0.234375 C 2.992188 0.234375 2.304688 0.00390625 1.765625 -0.453125 C 1.222656 -0.910156 0.953125 -1.566406 0.953125 -2.421875 C 0.953125 -2.867188 1.035156 -3.273438 1.203125 -3.640625 C 1.378906 -4.003906 1.695312 -4.347656 2.15625 -4.671875 C 2.613281 -5.003906 3.257812 -5.332031 4.09375 -5.65625 C 4.925781 -5.976562 5.992188 -6.328125 7.296875 -6.703125 Z M 7.296875 -6.703125 "/></g></g></g><g fill="#34252f" fill-opacity="1"><g transform="translate(919.029475, 266.649299)"><g><path d="M 3.90625 -0.875 L 5.640625 -0.390625 L 5.640625 0 L 0.375 0 L 0.375 -0.390625 L 2.078125 -0.875 L 2.078125 -14.359375 C 1.972656 -14.453125 1.835938 -14.550781 1.671875 -14.65625 C 1.515625 -14.769531 1.316406 -14.882812 1.078125 -15 C 0.835938 -15.125 0.570312 -15.253906 0.28125 -15.390625 L 0.28125 -15.609375 L 3.8125 -16.546875 L 3.984375 -16.546875 L 3.90625 -14.65625 Z M 3.90625 -0.875 "/></g></g></g><g fill="#34252f" fill-opacity="1"><g transform="translate(935.181208, 266.649299)"><g><path d="M 3.0625 -13.640625 C 2.632812 -13.640625 2.285156 -13.78125 2.015625 -14.0625 C 1.753906 -14.351562 1.625 -14.695312 1.625 -15.09375 C 1.625 -15.476562 1.753906 -15.804688 2.015625 -16.078125 C 2.285156 -16.347656 2.632812 -16.484375 3.0625 -16.484375 C 3.5 -16.484375 3.84375 -16.347656 4.09375 -16.078125 C 4.351562 -15.804688 4.484375 -15.476562 4.484375 -15.09375 C 4.484375 -14.695312 4.351562 -14.351562 4.09375 -14.0625 C 3.84375 -13.78125 3.5 -13.640625 3.0625 -13.640625 Z M 4.171875 -10.71875 L 4.125 -8.734375 L 4.125 -0.875 L 5.859375 -0.390625 L 5.859375 0 L 0.578125 0 L 0.578125 -0.390625 L 2.296875 -0.875 L 2.296875 -8.53125 C 2.210938 -8.601562 2.082031 -8.695312 1.90625 -8.8125 C 1.726562 -8.925781 1.523438 -9.039062 1.296875 -9.15625 C 1.078125 -9.269531 0.851562 -9.375 0.625 -9.46875 L 0.625 -9.765625 L 4.015625 -10.71875 Z M 4.171875 -10.71875 "/></g></g></g><g fill="#34252f" fill-opacity="1"><g transform="translate(951.53962, 266.649299)"><g><path d="M 4.703125 -10.671875 C 5.160156 -10.671875 5.578125 -10.625 5.953125 -10.53125 C 6.328125 -10.4375 6.734375 -10.28125 7.171875 -10.0625 L 7.40625 -7.203125 L 6.953125 -7.203125 L 5.71875 -10.109375 L 6.53125 -9.125 C 6.207031 -9.414062 5.898438 -9.628906 5.609375 -9.765625 C 5.316406 -9.898438 4.984375 -9.96875 4.609375 -9.96875 C 4.003906 -9.96875 3.53125 -9.832031 3.1875 -9.5625 C 2.84375 -9.289062 2.671875 -8.910156 2.671875 -8.421875 C 2.671875 -8.054688 2.757812 -7.75 2.9375 -7.5 C 3.125 -7.257812 3.390625 -7.035156 3.734375 -6.828125 C 4.085938 -6.628906 4.53125 -6.421875 5.0625 -6.203125 C 5.457031 -6.035156 5.8125 -5.851562 6.125 -5.65625 C 6.445312 -5.457031 6.722656 -5.226562 6.953125 -4.96875 C 7.179688 -4.71875 7.359375 -4.425781 7.484375 -4.09375 C 7.609375 -3.769531 7.671875 -3.390625 7.671875 -2.953125 C 7.671875 -2.296875 7.5 -1.726562 7.15625 -1.25 C 6.820312 -0.769531 6.363281 -0.398438 5.78125 -0.140625 C 5.207031 0.109375 4.5625 0.234375 3.84375 0.234375 C 3.351562 0.234375 2.914062 0.191406 2.53125 0.109375 C 2.144531 0.0234375 1.765625 -0.101562 1.390625 -0.28125 L 0.828125 -3.328125 L 1.328125 -3.328125 L 2.984375 -0.171875 L 1.859375 -0.96875 C 2.117188 -0.832031 2.347656 -0.722656 2.546875 -0.640625 C 2.753906 -0.566406 2.945312 -0.515625 3.125 -0.484375 C 3.3125 -0.460938 3.503906 -0.453125 3.703125 -0.453125 C 4.398438 -0.453125 4.976562 -0.609375 5.4375 -0.921875 C 5.894531 -1.242188 6.125 -1.722656 6.125 -2.359375 C 6.125 -2.671875 6.054688 -2.9375 5.921875 -3.15625 C 5.796875 -3.382812 5.613281 -3.585938 5.375 -3.765625 C 5.132812 -3.941406 4.851562 -4.109375 4.53125 -4.265625 C 4.21875 -4.421875 3.878906 -4.582031 3.515625 -4.75 C 3.023438 -4.96875 2.609375 -5.210938 2.265625 -5.484375 C 1.921875 -5.753906 1.65625 -6.082031 1.46875 -6.46875 C 1.289062 -6.851562 1.203125 -7.304688 1.203125 -7.828125 C 1.203125 -8.429688 1.359375 -8.941406 1.671875 -9.359375 C 1.984375 -9.785156 2.398438 -10.109375 2.921875 -10.328125 C 3.453125 -10.554688 4.046875 -10.671875 4.703125 -10.671875 Z M 4.703125 -10.671875 "/></g></g></g><g fill="#34252f" fill-opacity="1"><g transform="translate(970.32125, 266.649299)"><g><path d="M 3.6875 -2.84375 C 3.6875 -2.3125 3.847656 -1.910156 4.171875 -1.640625 C 4.492188 -1.367188 4.945312 -1.234375 5.53125 -1.234375 C 5.8125 -1.234375 6.117188 -1.257812 6.453125 -1.3125 C 6.785156 -1.375 7.15625 -1.46875 7.5625 -1.59375 L 7.5625 -1.125 C 7.039062 -0.769531 6.59375 -0.492188 6.21875 -0.296875 C 5.84375 -0.109375 5.515625 0.0195312 5.234375 0.09375 C 4.953125 0.164062 4.671875 0.203125 4.390625 0.203125 C 3.898438 0.203125 3.46875 0.109375 3.09375 -0.078125 C 2.71875 -0.273438 2.414062 -0.566406 2.1875 -0.953125 C 1.96875 -1.347656 1.859375 -1.847656 1.859375 -2.453125 L 1.859375 -8.921875 L 0.546875 -9.796875 L 0.546875 -9.984375 C 0.691406 -10.078125 0.84375 -10.179688 1 -10.296875 C 1.15625 -10.421875 1.328125 -10.546875 1.515625 -10.671875 C 1.703125 -10.804688 1.894531 -10.945312 2.09375 -11.09375 C 2.289062 -11.25 2.5 -11.40625 2.71875 -11.5625 C 2.945312 -11.726562 3.175781 -11.894531 3.40625 -12.0625 L 3.6875 -12.0625 Z M 3.015625 -9.328125 L 3.015625 -10.4375 L 7.25 -10.4375 L 7.0625 -9.328125 Z M 3.015625 -9.328125 "/></g></g></g><g clip-path="url(#38f14d72df)"><path fill="#34252f" d="M 472.589844 231.386719 L 891.175781 231.386719 L 893.703125 233.234375 L 893.703125 233.609375 L 890.898438 235.289062 L 472.898438 235.289062 L 470.925781 233.949219 L 470.925781 232.710938 Z M 472.589844 231.386719 " fill-opacity="1" fill-rule="evenodd"/></g><g clip-path="url(#bda4b00670)"><path fill="#34252f" d="M 548.371094 231.386719 L 966.953125 231.386719 L 969.480469 233.234375 L 969.480469 233.609375 L 966.679688 235.289062 L 548.675781 235.289062 L 546.703125 233.949219 L 546.703125 232.710938 Z M 548.371094 231.386719 " fill-opacity="1" fill-rule="evenodd"/></g></svg>